<svg width="138" height="158" viewBox="0 0 138 158" fill="none" xmlns="http://www.w3.org/2000/svg">
<g filter="url(#filter0_d)">
<rect x="24" width="70" height="70" fill="white"/>
</g>
<path d="M53.9719 21.223L42.3611 41.3329L52.4169 47.1388L64.0277 27.0289L53.9719 21.223Z" fill="#FBBC04"/>
<path d="M75.6389 41.3313L64.0271 21.221C62.424 18.4442 58.8733 17.4922 56.0966 19.0954C53.3198 20.6985 52.3678 24.2491 53.9709 27.0259L65.5827 47.1362C67.1858 49.913 70.7365 50.863 73.5132 49.2618C76.29 47.6587 77.24 44.1081 75.6389 41.3313Z" fill="#4285F4"/>
<path d="M47.3902 50.0397C50.5962 50.0397 53.1951 47.4408 53.1951 44.2348C53.1951 41.0289 50.5962 38.4299 47.3902 38.4299C44.1843 38.4299 41.5853 41.0289 41.5853 44.2348C41.5853 47.4408 44.1843 50.0397 47.3902 50.0397Z" fill="#34A853"/>
<defs>
<filter id="filter0_d" x="-20" y="0" width="158" height="158" filterUnits="userSpaceOnUse" color-interpolation-filters="sRGB">
<feFlood flood-opacity="0" result="BackgroundImageFix"/>
<feColorMatrix in="SourceAlpha" type="matrix" values="0 0 0 0 0 0 0 0 0 0 0 0 0 0 0 0 0 0 127 0" result="hardAlpha"/>
<feOffset dy="44"/>
<feGaussianBlur stdDeviation="22"/>
<feColorMatrix type="matrix" values="0 0 0 0 0.129412 0 0 0 0 0.14902 0 0 0 0 0.309804 0 0 0 0.2 0"/>
<feBlend mode="normal" in2="BackgroundImageFix" result="effect1_dropShadow"/>
<feBlend mode="normal" in="SourceGraphic" in2="effect1_dropShadow" result="shape"/>
</filter>
</defs>
</svg>
