<svg width="134" height="159" viewBox="0 0 134 159" fill="none" xmlns="http://www.w3.org/2000/svg">
<g filter="url(#filter0_d)">
<rect x="44" y="0.5625" width="70" height="70" fill="white"/>
</g>
<g clip-path="url(#clip0)">
<path d="M89.2411 29.6706V24.9409C90.4539 24.4003 91.3972 23.049 91.3972 21.6976V21.5625C91.2624 19.5355 89.6454 17.9139 87.6241 17.9139H87.4894C85.4681 17.9139 83.8511 19.5355 83.8511 21.5625V21.6976C83.8511 23.049 84.6596 24.4003 86.0071 24.9409V29.6706C84.2553 29.9409 82.5035 30.7517 81.0213 31.8328L68.0851 21.6976C68.2199 21.4274 68.2199 21.022 68.2199 20.6166C68.2199 18.3193 66.3333 16.4274 64.1773 16.4274C61.8865 16.5625 60 18.4544 60 20.6166C60 22.9139 61.8865 24.8057 64.0426 24.8057C64.7163 24.8057 65.3901 24.6706 66.0638 24.2652L78.8652 34.2652C76.5745 37.7787 76.5745 42.5084 79 46.022L75.0922 49.9409C74.8227 49.8057 74.4184 49.8057 74.1489 49.8057C72.2624 49.8057 70.7801 51.2922 70.7801 53.1841C70.7801 55.076 72.2624 56.5625 74.1489 56.5625C76.0355 56.5625 77.5177 55.076 77.5177 53.1841C77.5177 52.9139 77.5177 52.5084 77.383 52.2382L81.2908 48.3193C85.8723 51.8328 92.3404 51.022 95.844 46.4274C99.3475 41.8328 98.539 35.3463 93.9574 31.8328C92.6099 30.7517 90.9929 29.9409 89.2411 29.6706ZM87.6241 45.3463C84.6596 45.3463 82.234 42.9139 82.234 39.9409C82.234 36.9679 84.6596 34.5355 87.6241 34.5355C90.5886 34.5355 93.0142 36.9679 93.0142 39.9409C93.0142 42.9139 90.5886 45.3463 87.6241 45.3463Z" fill="#FF7A59"/>
</g>
<defs>
<filter id="filter0_d" x="0" y="0.5625" width="158" height="158" filterUnits="userSpaceOnUse" color-interpolation-filters="sRGB">
<feFlood flood-opacity="0" result="BackgroundImageFix"/>
<feColorMatrix in="SourceAlpha" type="matrix" values="0 0 0 0 0 0 0 0 0 0 0 0 0 0 0 0 0 0 127 0" result="hardAlpha"/>
<feOffset dy="44"/>
<feGaussianBlur stdDeviation="22"/>
<feColorMatrix type="matrix" values="0 0 0 0 0.129412 0 0 0 0 0.14902 0 0 0 0 0.309804 0 0 0 0.2 0"/>
<feBlend mode="normal" in2="BackgroundImageFix" result="effect1_dropShadow"/>
<feBlend mode="normal" in="SourceGraphic" in2="effect1_dropShadow" result="shape"/>
</filter>
<clipPath id="clip0">
<rect width="38" height="40" fill="white" transform="translate(60 16.5625)"/>
</clipPath>
</defs>
</svg>
