<svg width="578" height="378" viewBox="0 0 578 378" fill="none" xmlns="http://www.w3.org/2000/svg">
<g filter="url(#filter0_d)">
<path d="M514 0H64C52.9543 0 44 8.9543 44 20V270C44 281.046 52.9543 290 64 290H514C525.046 290 534 281.046 534 270V20C534 8.9543 525.046 0 514 0Z" fill="white"/>
<path d="M66.5674 28.3145H68.3506C69.5465 28.3145 70.4131 28.0924 70.9502 27.6484C71.4873 27.2044 71.7559 26.5456 71.7559 25.6719C71.7559 24.7839 71.4658 24.1465 70.8857 23.7598C70.3057 23.373 69.432 23.1797 68.2646 23.1797H66.5674V28.3145ZM66.5674 30.4414V36.7148H64V21.0098H68.4365C70.4632 21.0098 71.9635 21.3893 72.9375 22.1484C73.9115 22.9076 74.3984 24.0534 74.3984 25.5859C74.3984 27.541 73.3815 28.9339 71.3477 29.7646L75.7842 36.7148H72.8623L69.1025 30.4414H66.5674Z" fill="#CCCCCC"/>
<path d="M82.9922 36.9297C81.1445 36.9297 79.6979 36.3926 78.6523 35.3184C77.6139 34.237 77.0947 32.751 77.0947 30.8604C77.0947 28.9196 77.5781 27.3942 78.5449 26.2842C79.5117 25.1742 80.8402 24.6191 82.5303 24.6191C84.0986 24.6191 85.3376 25.0954 86.2471 26.0479C87.1566 27.0003 87.6113 28.3109 87.6113 29.9795V31.3438H79.6943C79.7301 32.4967 80.0417 33.3848 80.6289 34.0078C81.2161 34.6237 82.0433 34.9316 83.1104 34.9316C83.8122 34.9316 84.4639 34.8672 85.0654 34.7383C85.6742 34.6022 86.3258 34.3802 87.0205 34.0723V36.124C86.4046 36.4176 85.7816 36.6253 85.1514 36.7471C84.5212 36.8688 83.8014 36.9297 82.9922 36.9297ZM82.5303 26.5312C81.7282 26.5312 81.0837 26.7855 80.5967 27.2939C80.1169 27.8024 79.8304 28.5436 79.7373 29.5176H85.1299C85.1156 28.5365 84.8792 27.7952 84.4209 27.2939C83.9626 26.7855 83.3324 26.5312 82.5303 26.5312Z" fill="#CCCCCC"/>
<path d="M93.1865 36.7148L88.6748 24.834H91.3389L93.7559 31.7412C94.1712 32.9014 94.4219 33.8395 94.5078 34.5557H94.5938C94.6582 34.04 94.9089 33.1019 95.3457 31.7412L97.7627 24.834H100.448L95.915 36.7148H93.1865Z" fill="#CCCCCC"/>
<path d="M107.441 36.9297C105.594 36.9297 104.147 36.3926 103.102 35.3184C102.063 34.237 101.544 32.751 101.544 30.8604C101.544 28.9196 102.027 27.3942 102.994 26.2842C103.961 25.1742 105.289 24.6191 106.979 24.6191C108.548 24.6191 109.787 25.0954 110.696 26.0479C111.606 27.0003 112.06 28.3109 112.06 29.9795V31.3438H104.144C104.179 32.4967 104.491 33.3848 105.078 34.0078C105.665 34.6237 106.492 34.9316 107.56 34.9316C108.261 34.9316 108.913 34.8672 109.515 34.7383C110.123 34.6022 110.775 34.3802 111.47 34.0723V36.124C110.854 36.4176 110.231 36.6253 109.601 36.7471C108.97 36.8688 108.251 36.9297 107.441 36.9297ZM106.979 26.5312C106.177 26.5312 105.533 26.7855 105.046 27.2939C104.566 27.8024 104.28 28.5436 104.186 29.5176H109.579C109.565 28.5365 109.328 27.7952 108.87 27.2939C108.412 26.7855 107.782 26.5312 106.979 26.5312Z" fill="#CCCCCC"/>
<path d="M125.381 36.7148H122.846V29.4102C122.846 28.4935 122.66 27.8096 122.287 27.3584C121.922 26.9072 121.338 26.6816 120.536 26.6816C119.469 26.6816 118.689 26.9967 118.194 27.627C117.7 28.2572 117.453 29.3135 117.453 30.7959V36.7148H114.929V24.834H116.905L117.26 26.3916H117.389C117.747 25.8258 118.255 25.389 118.914 25.0811C119.573 24.7731 120.303 24.6191 121.106 24.6191C123.956 24.6191 125.381 26.0693 125.381 28.9697V36.7148Z" fill="#CCCCCC"/>
<path d="M137.273 36.7148L136.918 35.1572H136.789C136.438 35.7087 135.937 36.1419 135.285 36.457C134.641 36.7721 133.903 36.9297 133.072 36.9297C131.633 36.9297 130.559 36.5716 129.85 35.8555C129.141 35.1393 128.786 34.0544 128.786 32.6006V24.834H131.332V32.1602C131.332 33.0697 131.518 33.7536 131.891 34.2119C132.263 34.6631 132.847 34.8887 133.642 34.8887C134.702 34.8887 135.479 34.5736 135.973 33.9434C136.474 33.306 136.725 32.2425 136.725 30.7529V24.834H139.26V36.7148H137.273Z" fill="#CCCCCC"/>
<path d="M148.047 36.9297C146.199 36.9297 144.753 36.3926 143.707 35.3184C142.669 34.237 142.149 32.751 142.149 30.8604C142.149 28.9196 142.633 27.3942 143.6 26.2842C144.566 25.1742 145.895 24.6191 147.585 24.6191C149.153 24.6191 150.392 25.0954 151.302 26.0479C152.211 27.0003 152.666 28.3109 152.666 29.9795V31.3438H144.749C144.785 32.4967 145.096 33.3848 145.684 34.0078C146.271 34.6237 147.098 34.9316 148.165 34.9316C148.867 34.9316 149.519 34.8672 150.12 34.7383C150.729 34.6022 151.381 34.3802 152.075 34.0723V36.124C151.459 36.4176 150.836 36.6253 150.206 36.7471C149.576 36.8688 148.856 36.9297 148.047 36.9297ZM147.585 26.5312C146.783 26.5312 146.138 26.7855 145.651 27.2939C145.172 27.8024 144.885 28.5436 144.792 29.5176H150.185C150.17 28.5365 149.934 27.7952 149.476 27.2939C149.017 26.7855 148.387 26.5312 147.585 26.5312Z" fill="#CCCCCC"/>
<path d="M167.318 24.6191C168.801 24.6191 169.954 25.1562 170.777 26.2305C171.608 27.3047 172.023 28.8122 172.023 30.7529C172.023 32.7008 171.604 34.2191 170.767 35.3076C169.929 36.389 168.765 36.9297 167.275 36.9297C165.771 36.9297 164.604 36.389 163.773 35.3076H163.602L163.14 36.7148H161.249V20H163.773V23.9746C163.773 24.2682 163.759 24.7051 163.73 25.2852C163.702 25.8652 163.68 26.234 163.666 26.3916H163.773C164.576 25.21 165.757 24.6191 167.318 24.6191ZM166.663 26.6816C165.646 26.6816 164.912 26.9824 164.461 27.584C164.017 28.1784 163.788 29.1774 163.773 30.5811V30.7529C163.773 32.1995 164.003 33.2487 164.461 33.9004C164.919 34.5449 165.668 34.8672 166.706 34.8672C167.601 34.8672 168.278 34.5127 168.736 33.8037C169.202 33.0947 169.435 32.0706 169.435 30.7314C169.435 28.0316 168.511 26.6816 166.663 26.6816Z" fill="#CCCCCC"/>
<path d="M173.151 24.834H175.901L178.318 31.5693C178.684 32.529 178.927 33.4313 179.049 34.2764H179.135C179.199 33.8825 179.317 33.4062 179.489 32.8477C179.661 32.2819 180.571 29.6107 182.218 24.834H184.946L179.865 38.2939C178.941 40.7646 177.402 42 175.246 42C174.688 42 174.143 41.9391 173.613 41.8174V39.8193C173.993 39.9053 174.426 39.9482 174.913 39.9482C176.131 39.9482 176.986 39.2428 177.48 37.832L177.921 36.7148L173.151 24.834Z" fill="#CCCCCC"/>
<path d="M197.171 34.9102C198.231 34.9102 198.99 34.6058 199.448 33.9971C199.914 33.3812 200.146 32.4538 200.146 31.2148V30.8174C200.146 29.3493 199.907 28.293 199.427 27.6484C198.954 27.0039 198.188 26.6816 197.128 26.6816C196.226 26.6816 195.538 27.0397 195.065 27.7559C194.593 28.472 194.356 29.4997 194.356 30.8389C194.356 33.5531 195.295 34.9102 197.171 34.9102ZM196.451 36.9297C194.983 36.9297 193.834 36.3926 193.003 35.3184C192.172 34.237 191.757 32.7295 191.757 30.7959C191.757 28.8623 192.179 27.3512 193.024 26.2627C193.869 25.167 195.033 24.6191 196.516 24.6191C197.26 24.6191 197.926 24.7588 198.514 25.0381C199.108 25.3102 199.638 25.7614 200.104 26.3916H200.189L200.469 24.834H202.563V42H200.028V36.9619C200.028 36.6468 200.043 36.3138 200.071 35.9629C200.1 35.612 200.125 35.3434 200.146 35.1572H200.007C199.262 36.3389 198.077 36.9297 196.451 36.9297Z" fill="#CCCCCC"/>
<path d="M214.552 36.7148L214.197 35.1572H214.068C213.717 35.7087 213.216 36.1419 212.564 36.457C211.92 36.7721 211.182 36.9297 210.352 36.9297C208.912 36.9297 207.838 36.5716 207.129 35.8555C206.42 35.1393 206.065 34.0544 206.065 32.6006V24.834H208.611V32.1602C208.611 33.0697 208.798 33.7536 209.17 34.2119C209.542 34.6631 210.126 34.8887 210.921 34.8887C211.981 34.8887 212.758 34.5736 213.252 33.9434C213.753 33.306 214.004 32.2425 214.004 30.7529V24.834H216.539V36.7148H214.552Z" fill="#CCCCCC"/>
<path d="M227.571 36.7148L227.066 35.0605H226.98C226.408 35.7839 225.831 36.278 225.251 36.543C224.671 36.8008 223.926 36.9297 223.017 36.9297C221.849 36.9297 220.936 36.6146 220.277 35.9844C219.626 35.3542 219.3 34.4626 219.3 33.3096C219.3 32.085 219.755 31.1611 220.664 30.5381C221.574 29.915 222.959 29.5749 224.821 29.5176L226.873 29.4531V28.8193C226.873 28.0602 226.694 27.4945 226.336 27.1221C225.985 26.7425 225.437 26.5527 224.692 26.5527C224.084 26.5527 223.5 26.6423 222.941 26.8213C222.383 27.0003 221.846 27.2116 221.33 27.4551L220.514 25.6504C221.158 25.3138 221.864 25.0596 222.63 24.8877C223.396 24.7087 224.119 24.6191 224.8 24.6191C226.311 24.6191 227.45 24.9486 228.216 25.6074C228.989 26.2663 229.376 27.3011 229.376 28.7119V36.7148H227.571ZM223.812 34.9961C224.728 34.9961 225.462 34.7419 226.014 34.2334C226.572 33.7178 226.852 32.998 226.852 32.0742V31.043L225.326 31.1074C224.137 31.1504 223.271 31.3509 222.727 31.709C222.189 32.0599 221.921 32.6006 221.921 33.3311C221.921 33.861 222.078 34.2728 222.394 34.5664C222.709 34.8529 223.181 34.9961 223.812 34.9961Z" fill="#CCCCCC"/>
<path d="M238.926 24.6191C239.434 24.6191 239.853 24.6549 240.183 24.7266L239.936 27.0791C239.577 26.9932 239.205 26.9502 238.818 26.9502C237.809 26.9502 236.989 27.2796 236.358 27.9385C235.735 28.5973 235.424 29.4531 235.424 30.5059V36.7148H232.899V24.834H234.876L235.209 26.9287H235.338C235.732 26.2197 236.244 25.6576 236.874 25.2422C237.511 24.8268 238.195 24.6191 238.926 24.6191Z" fill="#CCCCCC"/>
<path d="M246.821 34.8887C247.437 34.8887 248.053 34.792 248.669 34.5986V36.5C248.39 36.6217 248.028 36.722 247.584 36.8008C247.147 36.8867 246.692 36.9297 246.22 36.9297C243.828 36.9297 242.632 35.6693 242.632 33.1484V26.7461H241.01V25.6289L242.75 24.7051L243.609 22.1914H245.167V24.834H248.551V26.7461H245.167V33.1055C245.167 33.7142 245.317 34.1654 245.618 34.459C245.926 34.7454 246.327 34.8887 246.821 34.8887Z" fill="#CCCCCC"/>
<path d="M256.242 36.9297C254.395 36.9297 252.948 36.3926 251.902 35.3184C250.864 34.237 250.345 32.751 250.345 30.8604C250.345 28.9196 250.828 27.3942 251.795 26.2842C252.762 25.1742 254.09 24.6191 255.78 24.6191C257.349 24.6191 258.588 25.0954 259.497 26.0479C260.407 27.0003 260.861 28.3109 260.861 29.9795V31.3438H252.944C252.98 32.4967 253.292 33.3848 253.879 34.0078C254.466 34.6237 255.293 34.9316 256.36 34.9316C257.062 34.9316 257.714 34.8672 258.315 34.7383C258.924 34.6022 259.576 34.3802 260.271 34.0723V36.124C259.655 36.4176 259.032 36.6253 258.401 36.7471C257.771 36.8688 257.051 36.9297 256.242 36.9297ZM255.78 26.5312C254.978 26.5312 254.334 26.7855 253.847 27.2939C253.367 27.8024 253.08 28.5436 252.987 29.5176H258.38C258.366 28.5365 258.129 27.7952 257.671 27.2939C257.213 26.7855 256.582 26.5312 255.78 26.5312Z" fill="#CCCCCC"/>
<path d="M269.756 24.6191C270.264 24.6191 270.683 24.6549 271.013 24.7266L270.766 27.0791C270.408 26.9932 270.035 26.9502 269.648 26.9502C268.639 26.9502 267.819 27.2796 267.188 27.9385C266.565 28.5973 266.254 29.4531 266.254 30.5059V36.7148H263.729V24.834H265.706L266.039 26.9287H266.168C266.562 26.2197 267.074 25.6576 267.704 25.2422C268.341 24.8268 269.025 24.6191 269.756 24.6191Z" fill="#CCCCCC"/>
<path d="M64 95H514V96.4998H64V95Z" fill="#EDF3FD"/>
<path d="M64 134.5H514V136H64V134.5Z" fill="#EDF3FD"/>
<path d="M64 174H514V175.499H64V174Z" fill="#EDF3FD"/>
<path d="M64 213.499H514V214.999H64V213.499Z" fill="#EDF3FD"/>
<path d="M153.5 79V230" stroke="#EDF3FD"/>
<path d="M243.5 79V230" stroke="#EDF3FD"/>
<path d="M333.5 79V230" stroke="#EDF3FD"/>
<path d="M423.5 79V230" stroke="#EDF3FD"/>
<path d="M156 220C156 220 169.501 218.843 181.143 214.606C203.297 206.543 200.039 203.129 224.286 204C241.5 204.619 231.831 209.318 267.429 212C288.94 213.621 288.98 201.84 310.571 202C338.685 202.208 326.036 189.28 353.714 185C370.883 182.345 379.623 169.314 396.857 167C418.196 164.136 423 93.5 423 93.5" stroke="#4A56C5" stroke-width="5" stroke-linecap="round"/>
<path d="M159.341 251.989C159.341 253.165 159.131 254.152 158.712 254.949C158.297 255.742 157.687 256.323 156.88 256.693L159.286 259.379H156.572L154.74 257.137H154.583C153.052 257.137 151.876 256.693 151.056 255.804C150.235 254.915 149.825 253.639 149.825 251.976C149.825 250.312 150.235 249.043 151.056 248.168C151.881 247.289 153.061 246.849 154.597 246.849C156.132 246.849 157.306 247.291 158.117 248.175C158.933 249.059 159.341 250.331 159.341 251.989ZM152.047 251.989C152.047 253.106 152.259 253.947 152.683 254.512C153.106 255.077 153.74 255.359 154.583 255.359C156.274 255.359 157.119 254.236 157.119 251.989C157.119 249.738 156.278 248.612 154.597 248.612C153.754 248.612 153.118 248.897 152.689 249.467C152.261 250.032 152.047 250.873 152.047 251.989Z" fill="black"/>
<path d="M165.938 257H163.825V251.217L163.846 250.267L163.88 249.228C163.529 249.579 163.285 249.809 163.148 249.918L162 250.841L160.981 249.569L164.201 247.006H165.938V257Z" fill="black"/>
<path d="M246.341 251.989C246.341 253.165 246.131 254.152 245.712 254.949C245.297 255.742 244.687 256.323 243.88 256.693L246.286 259.379H243.572L241.74 257.137H241.583C240.052 257.137 238.876 256.693 238.056 255.804C237.235 254.915 236.825 253.639 236.825 251.976C236.825 250.312 237.235 249.043 238.056 248.168C238.881 247.289 240.061 246.849 241.597 246.849C243.132 246.849 244.306 247.291 245.117 248.175C245.933 249.059 246.341 250.331 246.341 251.989ZM239.047 251.989C239.047 253.106 239.259 253.947 239.683 254.512C240.106 255.077 240.74 255.359 241.583 255.359C243.274 255.359 244.119 254.236 244.119 251.989C244.119 249.738 243.278 248.612 241.597 248.612C240.754 248.612 240.118 248.897 239.689 249.467C239.261 250.032 239.047 250.873 239.047 251.989Z" fill="black"/>
<path d="M254.701 257H247.715V255.53L250.224 252.994C250.966 252.233 251.452 251.707 251.68 251.415C251.908 251.119 252.072 250.845 252.172 250.595C252.272 250.344 252.322 250.084 252.322 249.816C252.322 249.415 252.211 249.116 251.987 248.92C251.769 248.724 251.475 248.626 251.105 248.626C250.718 248.626 250.342 248.715 249.978 248.893C249.613 249.07 249.232 249.323 248.836 249.651L247.688 248.291C248.18 247.872 248.588 247.576 248.911 247.402C249.235 247.229 249.588 247.097 249.971 247.006C250.354 246.91 250.782 246.862 251.256 246.862C251.88 246.862 252.432 246.976 252.91 247.204C253.389 247.432 253.76 247.751 254.024 248.161C254.289 248.571 254.421 249.041 254.421 249.569C254.421 250.03 254.339 250.463 254.175 250.868C254.015 251.269 253.765 251.682 253.423 252.106C253.086 252.529 252.489 253.133 251.632 253.917L250.347 255.127V255.223H254.701V257Z" fill="black"/>
<path d="M333.341 251.989C333.341 253.165 333.131 254.152 332.712 254.949C332.297 255.742 331.687 256.323 330.88 256.693L333.286 259.379H330.572L328.74 257.137H328.583C327.052 257.137 325.876 256.693 325.056 255.804C324.235 254.915 323.825 253.639 323.825 251.976C323.825 250.312 324.235 249.043 325.056 248.168C325.881 247.289 327.061 246.849 328.597 246.849C330.132 246.849 331.306 247.291 332.117 248.175C332.933 249.059 333.341 250.331 333.341 251.989ZM326.047 251.989C326.047 253.106 326.259 253.947 326.683 254.512C327.106 255.077 327.74 255.359 328.583 255.359C330.274 255.359 331.119 254.236 331.119 251.989C331.119 249.738 330.278 248.612 328.597 248.612C327.754 248.612 327.118 248.897 326.689 249.467C326.261 250.032 326.047 250.873 326.047 251.989Z" fill="black"/>
<path d="M341.312 249.241C341.312 249.866 341.122 250.397 340.744 250.834C340.366 251.272 339.835 251.572 339.151 251.736V251.777C339.958 251.878 340.569 252.124 340.983 252.516C341.398 252.903 341.605 253.427 341.605 254.088C341.605 255.05 341.257 255.799 340.56 256.337C339.862 256.87 338.867 257.137 337.572 257.137C336.488 257.137 335.526 256.957 334.688 256.597V254.799C335.075 254.995 335.501 255.154 335.966 255.277C336.431 255.401 336.891 255.462 337.347 255.462C338.044 255.462 338.559 255.344 338.892 255.107C339.224 254.87 339.391 254.489 339.391 253.965C339.391 253.496 339.199 253.163 338.816 252.967C338.434 252.771 337.823 252.673 336.984 252.673H336.226V251.053H336.998C337.773 251.053 338.338 250.953 338.693 250.752C339.053 250.547 339.233 250.198 339.233 249.706C339.233 248.95 338.759 248.571 337.812 248.571C337.483 248.571 337.148 248.626 336.807 248.735C336.469 248.845 336.093 249.034 335.679 249.303L334.701 247.847C335.613 247.191 336.7 246.862 337.962 246.862C338.996 246.862 339.812 247.072 340.409 247.491C341.011 247.911 341.312 248.494 341.312 249.241Z" fill="black"/>
<path d="M420.341 251.989C420.341 253.165 420.131 254.152 419.712 254.949C419.297 255.742 418.687 256.323 417.88 256.693L420.286 259.379H417.572L415.74 257.137H415.583C414.052 257.137 412.876 256.693 412.056 255.804C411.235 254.915 410.825 253.639 410.825 251.976C410.825 250.312 411.235 249.043 412.056 248.168C412.881 247.289 414.061 246.849 415.597 246.849C417.132 246.849 418.306 247.291 419.117 248.175C419.933 249.059 420.341 250.331 420.341 251.989ZM413.047 251.989C413.047 253.106 413.259 253.947 413.683 254.512C414.106 255.077 414.74 255.359 415.583 255.359C417.274 255.359 418.119 254.236 418.119 251.989C418.119 249.738 417.278 248.612 415.597 248.612C414.754 248.612 414.118 248.897 413.689 249.467C413.261 250.032 413.047 250.873 413.047 251.989Z" fill="black"/>
<path d="M428.927 254.929H427.724V257H425.659V254.929H421.394V253.459L425.775 247.006H427.724V253.288H428.927V254.929ZM425.659 253.288V251.593C425.659 251.31 425.671 250.9 425.693 250.362C425.716 249.825 425.734 249.512 425.748 249.426H425.693C425.525 249.8 425.322 250.164 425.085 250.52L423.253 253.288H425.659Z" fill="black"/>
<path d="M233.563 191.713H231.484V190.537H233.563V188.442H234.739V190.537H236.818V191.713H234.739V193.781H233.563V191.713Z" fill="#34AD78"/>
<path d="M241.84 195H240.18V190.456L240.196 189.71L240.223 188.893C239.947 189.169 239.756 189.35 239.648 189.436L238.746 190.161L237.946 189.162L240.476 187.148H241.84V195Z" fill="#34AD78"/>
<path d="M249.478 190.499C249.478 192.046 249.152 193.201 248.5 193.964C247.848 194.726 246.862 195.108 245.541 195.108C245.075 195.108 244.722 195.082 244.482 195.032V193.7C244.783 193.776 245.098 193.813 245.428 193.813C245.983 193.813 246.439 193.733 246.797 193.571C247.155 193.407 247.429 193.151 247.619 192.803C247.809 192.452 247.918 191.971 247.947 191.359H247.882C247.675 191.695 247.435 191.931 247.163 192.068C246.89 192.204 246.55 192.272 246.142 192.272C245.458 192.272 244.919 192.053 244.525 191.616C244.132 191.176 243.935 190.565 243.935 189.785C243.935 188.943 244.173 188.279 244.649 187.792C245.129 187.302 245.78 187.056 246.604 187.056C247.184 187.056 247.691 187.192 248.124 187.464C248.561 187.737 248.896 188.132 249.128 188.651C249.361 189.167 249.478 189.783 249.478 190.499ZM246.636 188.388C246.292 188.388 246.024 188.506 245.831 188.743C245.637 188.979 245.541 189.319 245.541 189.763C245.541 190.143 245.628 190.444 245.804 190.666C245.979 190.888 246.246 190.999 246.604 190.999C246.941 190.999 247.229 190.889 247.469 190.671C247.709 190.449 247.829 190.195 247.829 189.908C247.829 189.482 247.716 189.122 247.49 188.829C247.268 188.535 246.984 188.388 246.636 188.388Z" fill="#34AD78"/>
<path d="M251.556 189.5C251.556 189.955 251.596 190.295 251.674 190.521C251.757 190.743 251.887 190.854 252.066 190.854C252.41 190.854 252.582 190.402 252.582 189.5C252.582 188.605 252.41 188.157 252.066 188.157C251.887 188.157 251.757 188.268 251.674 188.49C251.596 188.709 251.556 189.045 251.556 189.5ZM253.936 189.489C253.936 190.313 253.776 190.932 253.458 191.348C253.139 191.76 252.672 191.965 252.056 191.965C251.465 191.965 251.008 191.754 250.686 191.332C250.364 190.906 250.203 190.291 250.203 189.489C250.203 187.853 250.82 187.035 252.056 187.035C252.661 187.035 253.125 187.248 253.447 187.674C253.773 188.096 253.936 188.702 253.936 189.489ZM257.631 187.148L253.275 195H251.986L256.342 187.148H257.631ZM257.056 192.637C257.056 193.092 257.096 193.432 257.174 193.657C257.257 193.879 257.387 193.99 257.566 193.99C257.91 193.99 258.082 193.539 258.082 192.637C258.082 191.742 257.91 191.294 257.566 191.294C257.387 191.294 257.257 191.405 257.174 191.627C257.096 191.845 257.056 192.182 257.056 192.637ZM259.436 192.626C259.436 193.446 259.276 194.064 258.958 194.479C258.639 194.891 258.172 195.097 257.556 195.097C256.965 195.097 256.508 194.886 256.186 194.463C255.864 194.037 255.703 193.425 255.703 192.626C255.703 190.99 256.32 190.172 257.556 190.172C258.161 190.172 258.625 190.385 258.947 190.811C259.273 191.233 259.436 191.838 259.436 192.626Z" fill="#34AD78"/>
<path d="M400.871 69.7246H396.902V67.479H400.871V63.48H403.116V67.479H407.084V69.7246H403.116V73.6724H400.871V69.7246Z" fill="#34AD78"/>
<path d="M408.735 69.6323C408.735 66.6655 409.361 64.4575 410.612 63.0083C411.87 61.5591 413.75 60.8345 416.251 60.8345C417.106 60.8345 417.776 60.8857 418.261 60.9883V63.521C417.653 63.3843 417.051 63.3159 416.457 63.3159C415.37 63.3159 414.481 63.48 413.791 63.8081C413.107 64.1362 412.594 64.6216 412.252 65.2642C411.911 65.9067 411.709 66.8193 411.647 68.002H411.781C412.458 66.8398 413.541 66.2588 415.031 66.2588C416.371 66.2588 417.42 66.6792 418.179 67.52C418.938 68.3608 419.317 69.5229 419.317 71.0063C419.317 72.606 418.866 73.874 417.964 74.8105C417.062 75.7402 415.811 76.2051 414.211 76.2051C413.104 76.2051 412.136 75.9487 411.309 75.436C410.489 74.9233 409.853 74.1748 409.402 73.1904C408.958 72.2061 408.735 71.02 408.735 69.6323ZM414.149 73.6724C414.826 73.6724 415.346 73.4468 415.708 72.9956C416.07 72.5376 416.251 71.8882 416.251 71.0474C416.251 70.3159 416.081 69.7417 415.739 69.3247C415.404 68.9009 414.895 68.689 414.211 68.689C413.568 68.689 413.018 68.8975 412.56 69.3145C412.109 69.7314 411.883 70.2168 411.883 70.7705C411.883 71.584 412.095 72.271 412.519 72.8315C412.95 73.3921 413.493 73.6724 414.149 73.6724Z" fill="#34AD78"/>
<path d="M431.232 68.5045C431.232 71.1227 430.802 73.0605 429.94 74.3184C429.086 75.5762 427.767 76.2052 425.982 76.2052C424.253 76.2052 422.947 75.5557 422.065 74.2568C421.19 72.958 420.753 71.0406 420.753 68.5045C420.753 65.859 421.18 63.9106 422.035 62.6597C422.889 61.4019 424.205 60.7729 425.982 60.7729C427.712 60.7729 429.018 61.4292 429.899 62.7417C430.788 64.0542 431.232 65.9752 431.232 68.5045ZM423.901 68.5045C423.901 70.3434 424.058 71.6627 424.373 72.4625C424.694 73.2555 425.23 73.652 425.982 73.652C426.721 73.652 427.254 73.2486 427.582 72.442C427.91 71.6354 428.074 70.3229 428.074 68.5045C428.074 66.6656 427.907 65.3463 427.572 64.5465C427.244 63.7398 426.714 63.3364 425.982 63.3364C425.237 63.3364 424.704 63.7398 424.383 64.5465C424.062 65.3463 423.901 66.6656 423.901 68.5045Z" fill="#34AD78"/>
<path d="M435.221 65.5C435.221 66.3682 435.296 67.0176 435.447 67.4482C435.604 67.8721 435.854 68.084 436.195 68.084C436.852 68.084 437.18 67.2227 437.18 65.5C437.18 63.791 436.852 62.9365 436.195 62.9365C435.854 62.9365 435.604 63.1484 435.447 63.5723C435.296 63.9893 435.221 64.6318 435.221 65.5ZM439.764 65.4795C439.764 67.0518 439.459 68.2344 438.851 69.0273C438.243 69.8135 437.351 70.2065 436.175 70.2065C435.047 70.2065 434.175 69.8032 433.56 68.9966C432.945 68.1831 432.637 67.0107 432.637 65.4795C432.637 62.3555 433.816 60.7935 436.175 60.7935C437.33 60.7935 438.215 61.2002 438.831 62.0137C439.453 62.8203 439.764 63.9756 439.764 65.4795ZM446.818 61.0088L438.502 76H436.042L444.357 61.0088H446.818ZM445.721 71.4883C445.721 72.3564 445.796 73.0059 445.947 73.4365C446.104 73.8604 446.354 74.0723 446.695 74.0723C447.352 74.0723 447.68 73.2109 447.68 71.4883C447.68 69.7793 447.352 68.9248 446.695 68.9248C446.354 68.9248 446.104 69.1367 445.947 69.5605C445.796 69.9775 445.721 70.6201 445.721 71.4883ZM450.264 71.4678C450.264 73.0332 449.959 74.2124 449.351 75.0054C448.743 75.7915 447.851 76.1846 446.675 76.1846C445.547 76.1846 444.675 75.7812 444.06 74.9746C443.445 74.1611 443.137 72.9922 443.137 71.4678C443.137 68.3438 444.316 66.7817 446.675 66.7817C447.83 66.7817 448.715 67.1885 449.331 68.002C449.953 68.8086 450.264 69.9639 450.264 71.4678Z" fill="#34AD78"/>
<path d="M316.563 172.713H314.484V171.537H316.563V169.442H317.739V171.537H319.818V172.713H317.739V174.781H316.563V172.713Z" fill="#34AD78"/>
<path d="M326.226 176H320.736V174.845L322.708 172.853C323.291 172.255 323.673 171.841 323.852 171.612C324.031 171.379 324.16 171.164 324.238 170.967C324.317 170.77 324.356 170.566 324.356 170.355C324.356 170.04 324.269 169.805 324.093 169.651C323.921 169.498 323.69 169.421 323.4 169.421C323.096 169.421 322.801 169.49 322.514 169.63C322.228 169.77 321.929 169.968 321.617 170.226L320.715 169.157C321.102 168.828 321.422 168.595 321.676 168.459C321.931 168.323 322.208 168.219 322.509 168.148C322.81 168.072 323.146 168.035 323.519 168.035C324.009 168.035 324.442 168.124 324.818 168.303C325.194 168.482 325.486 168.733 325.694 169.055C325.902 169.378 326.005 169.746 326.005 170.162C326.005 170.523 325.941 170.864 325.812 171.182C325.687 171.497 325.49 171.821 325.221 172.154C324.956 172.487 324.487 172.962 323.814 173.578L322.804 174.528V174.604H326.226V176Z" fill="#34AD78"/>
<path d="M331.124 176H329.464V171.456L329.48 170.71L329.507 169.893C329.232 170.169 329.04 170.35 328.933 170.436L328.03 171.161L327.23 170.162L329.76 168.148H331.124V176Z" fill="#34AD78"/>
<path d="M334.556 170.5C334.556 170.955 334.596 171.295 334.674 171.521C334.757 171.743 334.887 171.854 335.066 171.854C335.41 171.854 335.582 171.402 335.582 170.5C335.582 169.605 335.41 169.157 335.066 169.157C334.887 169.157 334.757 169.268 334.674 169.49C334.596 169.709 334.556 170.045 334.556 170.5ZM336.936 170.489C336.936 171.313 336.776 171.932 336.458 172.348C336.139 172.76 335.672 172.965 335.056 172.965C334.465 172.965 334.008 172.754 333.686 172.332C333.364 171.906 333.203 171.291 333.203 170.489C333.203 168.853 333.82 168.035 335.056 168.035C335.661 168.035 336.125 168.248 336.447 168.674C336.773 169.096 336.936 169.702 336.936 170.489ZM340.631 168.148L336.275 176H334.986L339.342 168.148H340.631ZM340.056 173.637C340.056 174.092 340.096 174.432 340.174 174.657C340.257 174.879 340.387 174.99 340.566 174.99C340.91 174.99 341.082 174.539 341.082 173.637C341.082 172.742 340.91 172.294 340.566 172.294C340.387 172.294 340.257 172.405 340.174 172.627C340.096 172.845 340.056 173.182 340.056 173.637ZM342.436 173.626C342.436 174.446 342.276 175.064 341.958 175.479C341.639 175.891 341.172 176.097 340.556 176.097C339.965 176.097 339.508 175.886 339.186 175.463C338.864 175.037 338.703 174.425 338.703 173.626C338.703 171.99 339.32 171.172 340.556 171.172C341.161 171.172 341.625 171.385 341.947 171.811C342.273 172.233 342.436 172.838 342.436 173.626Z" fill="#34AD78"/>
<path d="M155 224C157.209 224 159 222.209 159 220C159 217.791 157.209 216 155 216C152.791 216 151 217.791 151 220C151 222.209 152.791 224 155 224Z" fill="#4B57C5"/>
<path d="M243 213C245.209 213 247 211.209 247 209C247 206.791 245.209 205 243 205C240.791 205 239 206.791 239 209C239 211.209 240.791 213 243 213Z" fill="#4B57C5"/>
<path d="M333 198C335.209 198 337 196.209 337 194C337 191.791 335.209 190 333 190C330.791 190 329 191.791 329 194C329 196.209 330.791 198 333 198Z" fill="#4B57C5"/>
<path d="M423 95C425.209 95 427 93.2091 427 91C427 88.7909 425.209 87 423 87C420.791 87 419 88.7909 419 91C419 93.2091 420.791 95 423 95Z" fill="#4B57C5"/>
<path d="M423 97C426.314 97 429 94.3137 429 91C429 87.6863 426.314 85 423 85C419.686 85 417 87.6863 417 91C417 94.3137 419.686 97 423 97Z" fill="#4B57C5" fill-opacity="0.4"/>
<path d="M333 200C336.314 200 339 197.314 339 194C339 190.686 336.314 188 333 188C329.686 188 327 190.686 327 194C327 197.314 329.686 200 333 200Z" fill="#4B57C5" fill-opacity="0.4"/>
<path d="M243 215C246.314 215 249 212.314 249 209C249 205.686 246.314 203 243 203C239.686 203 237 205.686 237 209C237 212.314 239.686 215 243 215Z" fill="#4B57C5" fill-opacity="0.4"/>
<path d="M155 226C158.314 226 161 223.314 161 220C161 216.686 158.314 214 155 214C151.686 214 149 216.686 149 220C149 223.314 151.686 226 155 226Z" fill="#4B57C5" fill-opacity="0.4"/>
</g>
<defs>
<filter id="filter0_d" x="0" y="0" width="578" height="378" filterUnits="userSpaceOnUse" color-interpolation-filters="sRGB">
<feFlood flood-opacity="0" result="BackgroundImageFix"/>
<feColorMatrix in="SourceAlpha" type="matrix" values="0 0 0 0 0 0 0 0 0 0 0 0 0 0 0 0 0 0 127 0" result="hardAlpha"/>
<feOffset dy="44"/>
<feGaussianBlur stdDeviation="22"/>
<feColorMatrix type="matrix" values="0 0 0 0 0.129412 0 0 0 0 0.14902 0 0 0 0 0.309804 0 0 0 0.2 0"/>
<feBlend mode="normal" in2="BackgroundImageFix" result="effect1_dropShadow"/>
<feBlend mode="normal" in="SourceGraphic" in2="effect1_dropShadow" result="shape"/>
</filter>
</defs>
</svg>
