<svg width="340" height="156" viewBox="0 0 340 156" fill="none" xmlns="http://www.w3.org/2000/svg">
<path d="M318.39 0.00292969H21.6102C9.6752 0.00292969 0 9.65872 0 21.5697V133.717C0 145.628 9.6752 155.284 21.6102 155.284H318.39C330.325 155.284 340 145.628 340 133.717V21.5697C340 9.65872 330.325 0.00292969 318.39 0.00292969Z" fill="white"/>
<path d="M15.9002 31.6345V20.3442H17.7496V30.0514H22.5394V31.6345H15.9002Z" fill="#CCCCCC"/>
<path d="M28.0334 31.789C26.7025 31.789 25.6604 31.4029 24.9072 30.6306C24.1592 29.8532 23.7852 28.7849 23.7852 27.4258C23.7852 26.0306 24.1334 24.934 24.8299 24.136C25.5263 23.338 26.4833 22.939 27.7007 22.939C28.8304 22.939 29.7229 23.2814 30.3781 23.9661C31.0332 24.6508 31.3607 25.593 31.3607 26.7925V27.7733H25.6578C25.6836 28.6022 25.9081 29.2406 26.3311 29.6884C26.7541 30.1312 27.3499 30.3526 28.1186 30.3526C28.6241 30.3526 29.0936 30.3063 29.5268 30.2136C29.9654 30.1158 30.4348 29.9562 30.9352 29.7348V31.2098C30.4915 31.4208 30.0427 31.5701 29.5888 31.6577C29.1348 31.7452 28.6163 31.789 28.0334 31.789ZM27.7007 24.3136C27.1229 24.3136 26.6587 24.4964 26.3079 24.8619C25.9622 25.2274 25.7559 25.7603 25.6888 26.4605H29.5733C29.563 25.7552 29.3927 25.2223 29.0626 24.8619C28.7324 24.4964 28.2785 24.3136 27.7007 24.3136Z" fill="#CCCCCC"/>
<path d="M38.7815 31.6346L38.4178 30.4453H38.356C37.9433 30.9653 37.528 31.3205 37.1101 31.511C36.6923 31.6963 36.1558 31.789 35.5006 31.789C34.6598 31.789 34.002 31.5625 33.5274 31.1094C33.058 30.6564 32.8233 30.0154 32.8233 29.1865C32.8233 28.3062 33.1509 27.642 33.806 27.1941C34.4612 26.7462 35.4593 26.5017 36.8006 26.4605L38.2785 26.4141V25.9585C38.2785 25.4128 38.1496 25.0061 37.8916 24.7384C37.6389 24.4655 37.2443 24.329 36.7078 24.329C36.2693 24.329 35.8488 24.3934 35.4464 24.5221C35.0441 24.6508 34.6572 24.8027 34.2858 24.9777L33.6977 23.6804C34.1619 23.4384 34.6701 23.2556 35.2221 23.1321C35.7741 23.0034 36.2951 22.939 36.7851 22.939C37.8736 22.939 38.6938 23.1758 39.2458 23.6494C39.803 24.1231 40.0815 24.867 40.0815 25.8813V31.6346H38.7815ZM36.0732 30.3989C36.7335 30.3989 37.2623 30.2162 37.6595 29.8506C38.0619 29.48 38.2631 28.9626 38.2631 28.2984V27.5571L37.1643 27.6034C36.308 27.6343 35.6837 27.7784 35.2917 28.0358C34.9048 28.2881 34.7113 28.6768 34.7113 29.202C34.7113 29.5829 34.8249 29.879 35.0518 30.09C35.2788 30.296 35.6193 30.3989 36.0732 30.3989Z" fill="#CCCCCC"/>
<path d="M45.5059 31.7888C44.438 31.7888 43.6049 31.4027 43.0065 30.6305C42.4081 29.8582 42.1089 28.7745 42.1089 27.3793C42.1089 25.9789 42.4107 24.89 43.0143 24.1127C43.6229 23.3301 44.4638 22.9388 45.5368 22.9388C46.6614 22.9388 47.5177 23.3533 48.1058 24.1821H48.1987C48.111 23.5695 48.0671 23.0855 48.0671 22.7303V19.6182H49.8933V31.6344H48.4695L48.1523 30.5146H48.0671C47.4842 31.3641 46.6304 31.7888 45.5059 31.7888ZM45.9934 30.3216C46.7414 30.3216 47.2856 30.113 47.6261 29.6961C47.9666 29.2738 48.142 28.5917 48.1523 27.6496V27.3947C48.1523 26.3187 47.9769 25.5542 47.6261 25.1012C47.2753 24.6481 46.7259 24.4215 45.9779 24.4215C45.3382 24.4215 44.8456 24.6816 44.4999 25.2015C44.1543 25.7164 43.9814 26.4525 43.9814 27.4102C43.9814 28.3575 44.1491 29.0808 44.4845 29.5802C44.8198 30.0744 45.3227 30.3216 45.9934 30.3216Z" fill="#CCCCCC"/>
<path d="M58.2426 29.202C58.2426 30.036 57.9383 30.6769 57.3295 31.1249C56.7209 31.5676 55.849 31.789 54.7141 31.789C53.5741 31.789 52.6584 31.6165 51.9671 31.2716V29.7039C52.9731 30.1672 53.9094 30.3989 54.776 30.3989C55.8954 30.3989 56.4551 30.0617 56.4551 29.3873C56.4551 29.1711 56.3932 28.9908 56.2694 28.8467C56.1457 28.7026 55.9419 28.5532 55.6581 28.3988C55.3744 28.2443 54.9798 28.0693 54.4742 27.8737C53.4889 27.4927 52.8209 27.1117 52.4701 26.7308C52.1245 26.3498 51.9516 25.8555 51.9516 25.2481C51.9516 24.5169 52.2457 23.9507 52.8338 23.5491C53.427 23.1423 54.2318 22.939 55.2481 22.939C56.254 22.939 57.2057 23.1423 58.1033 23.5491L57.5153 24.9159C56.5918 24.535 55.8155 24.3445 55.1861 24.3445C54.2266 24.3445 53.7469 24.6174 53.7469 25.1631C53.7469 25.4308 53.8707 25.6573 54.1183 25.8426C54.371 26.028 54.9179 26.2828 55.7587 26.6072C56.4655 26.88 56.9787 27.1298 57.2986 27.3563C57.6185 27.5828 57.8558 27.8453 58.0105 28.144C58.1653 28.4374 58.2426 28.79 58.2426 29.202Z" fill="#CCCCCC"/>
<path d="M322.712 66.1411H17.2881V67.5789H322.712V66.1411Z" fill="#EEEEEE"/>
<path d="M322.712 84.832H17.2881V86.2698H322.712V84.832Z" fill="#EEEEEE"/>
<path d="M322.712 103.523H17.2881V104.961H322.712V103.523Z" fill="#EEEEEE"/>
<path d="M322.712 122.215H17.2881V123.653H322.712V122.215Z" fill="#EEEEEE"/>
<path d="M41.7797 121.496L103.189 110.138L164.597 117.71L226.006 98.779L287.415 64.7036" stroke="#21264F" stroke-width="4"/>
<path d="M42.1398 121.136L103.189 91.3023L164.597 95.1362L226.006 68.2979L287.415 72.1316" stroke="#B0B8FC" stroke-width="4"/>
<path d="M41.7797 120.501L103.189 73.9937L164.597 62.5469L226.006 100.703L287.415 112.15" stroke="#4B57C5" stroke-width="4"/>
</svg>
