<svg width="340" height="211" viewBox="0 0 340 211" fill="none" xmlns="http://www.w3.org/2000/svg">
<path d="M318.39 0H21.6102C9.6752 0 0 9.67248 0 21.6041V189.396C0 201.328 9.6752 211 21.6102 211H318.39C330.325 211 340 201.328 340 189.396V21.6041C340 9.67248 330.325 0 318.39 0Z" fill="white"/>
<path d="M322.712 60.4917H17.2881V61.932H322.712V60.4917Z" fill="#EEEEEE"/>
<path d="M322.712 97.9385H17.2881V99.3788H322.712V97.9385Z" fill="#EEEEEE"/>
<path d="M322.712 135.386H17.2881V136.826H322.712V135.386Z" fill="#EEEEEE"/>
<path d="M322.712 172.833H17.2881V174.273H322.712V172.833Z" fill="#EEEEEE"/>
<path d="M26.3388 31.6858H24.3269L22.4079 24.9401C22.3253 24.6462 22.2222 24.2233 22.0983 23.6715C21.9746 23.1145 21.8997 22.7277 21.874 22.5111C21.8224 22.8411 21.7372 23.2692 21.6186 23.7953C21.5051 24.3212 21.4097 24.7132 21.3323 24.9711L19.4597 31.6858H17.4478L15.9853 26.0231L14.4996 20.376H16.3877L18.0049 26.967C18.2577 28.0242 18.4383 28.9576 18.5466 29.7673C18.6033 29.3289 18.6885 28.839 18.802 28.2975C18.9155 27.756 19.0186 27.3176 19.1115 26.9824L20.9532 20.376H22.7871L24.6751 27.0133C24.8557 27.627 25.0465 28.5451 25.2477 29.7673C25.3251 29.0298 25.5108 28.0912 25.8048 26.9515L27.4144 20.376H29.287L26.3388 31.6858Z" fill="#CCCCCC"/>
<path d="M34.4405 31.8408C33.1096 31.8408 32.0676 31.454 31.3144 30.6805C30.5664 29.9017 30.1924 28.8316 30.1924 27.4701C30.1924 26.0725 30.5406 24.974 31.237 24.1746C31.9334 23.3753 32.8903 22.9756 34.1078 22.9756C35.2376 22.9756 36.13 23.3185 36.7851 24.0044C37.4403 24.6904 37.7679 25.6341 37.7679 26.8357V27.8182H32.065C32.0908 28.6485 32.3151 29.288 32.7381 29.7367C33.1612 30.1803 33.757 30.402 34.5257 30.402C35.0312 30.402 35.5006 30.3555 35.934 30.2627C36.3725 30.1648 36.8419 30.0049 37.3423 29.7831V31.2607C36.8987 31.4721 36.4498 31.6217 35.9959 31.7093C35.5419 31.797 35.0235 31.8408 34.4405 31.8408ZM34.1078 24.3526C33.53 24.3526 33.0657 24.5356 32.7149 24.9018C32.3693 25.268 32.1629 25.8018 32.0959 26.5031H35.9804C35.9701 25.7966 35.7999 25.2628 35.4697 24.9018C35.1395 24.5356 34.6856 24.3526 34.1078 24.3526Z" fill="#CCCCCC"/>
<path d="M44.2059 22.9753C45.2737 22.9753 46.1043 23.3621 46.6975 24.1357C47.2959 24.9092 47.5951 25.9948 47.5951 27.3925C47.5951 28.7952 47.2933 29.8885 46.6898 30.6725C46.0862 31.4512 45.2479 31.8406 44.1749 31.8406C43.0916 31.8406 42.2507 31.4512 41.6523 30.6725H41.5285L41.1958 31.6859H39.8339V19.6489H41.6523V22.5112C41.6523 22.7226 41.642 23.0372 41.6214 23.4549C41.6007 23.8727 41.5852 24.1383 41.5749 24.2518H41.6523C42.2301 23.4008 43.0813 22.9753 44.2059 22.9753ZM43.7338 24.4606C43.0013 24.4606 42.4725 24.6772 42.1475 25.1104C41.8277 25.5384 41.6627 26.2579 41.6523 27.2687V27.3925C41.6523 28.4342 41.8174 29.1898 42.1475 29.659C42.4777 30.1232 43.0168 30.3553 43.7648 30.3553C44.4096 30.3553 44.8971 30.1001 45.2273 29.5895C45.5626 29.0789 45.7303 28.3414 45.7303 27.377C45.7303 25.4327 45.0647 24.4606 43.7338 24.4606Z" fill="#CCCCCC"/>
<path d="M57.9254 31.6858H56.076V21.9619H52.7486V20.376H61.2527V21.9619H57.9254V31.6858Z" fill="#CCCCCC"/>
<path d="M67.1413 22.9756C67.5076 22.9756 67.8094 23.0014 68.0467 23.0529L67.8687 24.7471C67.6108 24.6852 67.3425 24.6543 67.064 24.6543C66.3366 24.6543 65.7459 24.8915 65.2919 25.3659C64.8432 25.8404 64.6188 26.4567 64.6188 27.2148V31.6861H62.8003V23.1303H64.2241L64.464 24.6388H64.5568C64.8406 24.1282 65.2094 23.7234 65.6633 23.4242C66.1225 23.1252 66.6151 22.9756 67.1413 22.9756Z" fill="#CCCCCC"/>
<path d="M74.9952 31.6861L74.6314 30.4948H74.5702C74.1574 31.0157 73.7418 31.3716 73.324 31.5623C72.9062 31.748 72.3695 31.8408 71.7145 31.8408C70.8736 31.8408 70.2159 31.6139 69.7413 31.1601C69.2719 30.7063 69.0371 30.0642 69.0371 29.2339C69.0371 28.352 69.3647 27.6867 70.0199 27.238C70.675 26.7894 71.6732 26.5444 73.0142 26.5031L74.4924 26.4567V26.0003C74.4924 25.4536 74.3634 25.0462 74.1056 24.778C73.8527 24.5047 73.458 24.368 72.9213 24.368C72.4834 24.368 72.0627 24.4325 71.6603 24.5614C71.258 24.6904 70.871 24.8425 70.4996 25.0178L69.9115 23.7182C70.3758 23.4759 70.8839 23.2927 71.4359 23.169C71.9879 23.04 72.5093 22.9756 72.9991 22.9756C74.0876 22.9756 74.908 23.2128 75.4598 23.6873C76.0166 24.1617 76.2954 24.907 76.2954 25.923V31.6861H74.9952ZM72.2874 30.4484C72.9473 30.4484 73.476 30.2653 73.8736 29.8992C74.2756 29.5278 74.4773 29.0095 74.4773 28.3443V27.6016L73.378 27.648C72.5215 27.6789 71.8977 27.8234 71.5056 28.0812C71.1187 28.334 70.9252 28.7233 70.9252 29.2493C70.9252 29.631 71.0387 29.9275 71.2657 30.139C71.4927 30.3452 71.8332 30.4484 72.2874 30.4484Z" fill="#CCCCCC"/>
<path d="M83.1279 24.5071H81.0389V31.686H79.2128V24.5071H77.8046V23.6562L79.2128 23.0993V22.5422C79.2128 21.5314 79.4498 20.7837 79.9245 20.2989C80.3992 19.809 81.1239 19.564 82.0992 19.564C82.7389 19.564 83.3677 19.6697 83.9872 19.8811L83.5075 21.2581C83.0587 21.1137 82.6301 21.0415 82.2231 21.0415C81.8104 21.0415 81.5085 21.1704 81.3177 21.4283C81.1318 21.681 81.0389 22.0626 81.0389 22.5732V23.1302H83.1279V24.5071ZM88.8776 24.5071H86.7879V31.686H84.9619V24.5071H83.5536V23.6562L84.9619 23.0993V22.5422C84.9619 21.5314 85.1996 20.7837 85.6743 20.2989C86.1482 19.809 86.8736 19.564 87.8483 19.564C88.4879 19.564 89.1175 19.6697 89.7363 19.8811L89.2565 21.2581C88.8077 21.1137 88.3799 21.0415 87.9721 21.0415C87.5594 21.0415 87.2576 21.1704 87.0667 21.4283C86.8808 21.681 86.7879 22.0626 86.7879 22.5732V23.1302H88.8776V24.5071ZM92.1588 31.686H90.3399V23.1302H92.1588V31.686ZM90.2319 20.8636C90.2319 20.5387 90.319 20.2886 90.4948 20.1132C90.6756 19.9379 90.9306 19.8502 91.2605 19.8502C91.5803 19.8502 91.8281 19.9379 92.0039 20.1132C92.184 20.2886 92.2747 20.5387 92.2747 20.8636C92.2747 21.173 92.184 21.418 92.0039 21.5985C91.8281 21.7738 91.5803 21.8615 91.2605 21.8615C90.9306 21.8615 90.6756 21.7738 90.4948 21.5985C90.319 21.418 90.2319 21.173 90.2319 20.8636Z" fill="#CCCCCC"/>
<path d="M98.2095 31.8408C96.9144 31.8408 95.9297 31.4644 95.2533 30.7114C94.5826 29.9533 94.2477 28.8677 94.2477 27.4546C94.2477 26.0158 94.5985 24.9095 95.3001 24.1359C96.0067 23.3624 97.0253 22.9756 98.3565 22.9756C99.2591 22.9756 100.072 23.1432 100.794 23.4784L100.245 24.9405C99.4759 24.6413 98.8413 24.4918 98.3414 24.4918C96.8603 24.4918 96.1206 25.4742 96.1206 27.4391C96.1206 28.3984 96.3035 29.1204 96.6695 29.6052C97.0412 30.0848 97.5828 30.3247 98.2945 30.3247C99.1042 30.3247 99.8706 30.1235 100.592 29.7212V31.3071C100.268 31.4979 99.9196 31.6346 99.5479 31.7171C99.182 31.7996 98.7354 31.8408 98.2095 31.8408Z" fill="#CCCCCC"/>
<path d="M64.1102 129.625H38.178V174.273H64.1102V129.625Z" fill="#B0B8FC"/>
<path d="M64.1101 135.386H90.0424V174.273H64.1101V135.386Z" fill="#4B57C5"/>
<path d="M134.703 95.0581H108.771V174.273H134.703V95.0581Z" fill="#B0B8FC"/>
<path d="M134.703 108.741H160.636V174.273H134.703V108.741Z" fill="#4B57C5"/>
<path d="M205.297 86.811H179.364V174.273H205.297V86.811Z" fill="#B0B8FC"/>
<path d="M205.297 108.741H231.229V174.273H205.297V108.741Z" fill="#4B57C5"/>
<path d="M275.89 72.7339H249.958V174.273H275.89V72.7339Z" fill="#B0B8FC"/>
<path d="M275.89 95.0581H301.822V174.273H275.89V95.0581Z" fill="#4B57C5"/>
</svg>
